# Blender 5.0.1
# www.blender.org
mtllib pong_table.mtl
o Table
v -1.000000 1.085504 2.000000
v -1.000000 1.166205 2.000000
v -1.000000 1.085504 -2.000000
v -1.000000 1.166205 -2.000000
v 1.000000 1.085504 2.000000
v 1.000000 1.166205 2.000000
v 1.000000 1.085504 -2.000000
v 1.000000 1.166205 -2.000000
v -0.965316 1.133960 0.012520
v -0.965316 1.133960 -0.012520
v 0.965316 1.133960 0.012520
v 0.965316 1.133960 -0.012520
v -0.965316 1.413924 0.012520
v -0.965316 1.413924 -0.012520
v 0.965316 1.413924 -0.012520
v 0.965316 1.413924 0.012520
v -0.938440 1.407638 0.002786
v 0.938440 1.407638 0.002786
v 0.938440 1.180786 0.002786
v -0.938440 1.180786 0.002786
v 0.938440 1.133960 -0.012520
v -0.938440 1.133960 -0.012520
v -0.938440 1.133960 0.012520
v 0.938440 1.133960 0.012520
v -0.938440 1.413924 -0.012520
v 0.938440 1.413924 -0.012520
v 0.938440 1.413924 0.012520
v -0.938440 1.413924 0.012520
v 0.938440 1.180786 -0.002786
v -0.938440 1.180786 -0.002786
v -0.938440 1.407638 -0.002786
v 0.938440 1.407638 -0.002786
v 0.794145 1.085504 1.815947
v 0.800590 1.085504 1.708574
v 0.901518 1.085504 1.822392
v 0.907963 1.085504 1.715019
v 0.778897 1.085504 1.741430
v 0.776538 1.085504 1.780732
v 0.875107 1.085504 1.693325
v 0.835806 1.085504 1.690966
v 0.923212 1.085504 1.789536
v 0.925571 1.085504 1.750234
v 0.827002 1.085504 1.837641
v 0.866303 1.085504 1.840000
v 0.829461 1.085504 1.743890
v 0.829461 1.085504 1.787076
v 0.872648 1.085504 1.743890
v 0.872648 1.085504 1.787076
v 0.776538 0.016355 1.780732
v 0.794145 0.016355 1.815947
v 0.835806 0.016355 1.690966
v 0.800590 0.016355 1.708574
v 0.925571 0.016355 1.750234
v 0.907963 0.016355 1.715019
v 0.866303 0.016355 1.840000
v 0.901518 0.016355 1.822392
v 0.778897 0.016355 1.741430
v 0.875107 0.016355 1.693325
v 0.923212 0.016355 1.789536
v 0.827002 0.016355 1.837641
v 0.829461 0.016355 1.787076
v 0.829461 0.016355 1.743890
v 0.872648 0.016355 1.787076
v 0.872648 0.016355 1.743890
v -0.922475 1.085504 1.815947
v -0.916031 1.085504 1.708574
v -0.815102 1.085504 1.822392
v -0.808657 1.085504 1.715019
v -0.937724 1.085504 1.741430
v -0.940083 1.085504 1.780732
v -0.841514 1.085504 1.693325
v -0.880815 1.085504 1.690966
v -0.793409 1.085504 1.789536
v -0.791050 1.085504 1.750234
v -0.889619 1.085504 1.837641
v -0.850318 1.085504 1.840000
v -0.887160 1.085504 1.743890
v -0.887160 1.085504 1.787076
v -0.843973 1.085504 1.743890
v -0.843973 1.085504 1.787076
v -0.940083 0.016355 1.780732
v -0.922475 0.016355 1.815947
v -0.880815 0.016355 1.690966
v -0.916031 0.016355 1.708574
v -0.791050 0.016355 1.750234
v -0.808657 0.016355 1.715019
v -0.850318 0.016355 1.840000
v -0.815102 0.016355 1.822392
v -0.937724 0.016355 1.741430
v -0.841514 0.016355 1.693325
v -0.793409 0.016355 1.789536
v -0.889619 0.016355 1.837641
v -0.887160 0.016355 1.787076
v -0.887160 0.016355 1.743890
v -0.843973 0.016355 1.787076
v -0.843973 0.016355 1.743890
v 0.794145 1.085504 -1.823598
v 0.800590 1.085504 -1.930971
v 0.901518 1.085504 -1.817153
v 0.907963 1.085504 -1.924526
v 0.778897 1.085504 -1.898115
v 0.776538 1.085504 -1.858813
v 0.875107 1.085504 -1.946220
v 0.835806 1.085504 -1.948579
v 0.923212 1.085504 -1.850010
v 0.925571 1.085504 -1.889311
v 0.827002 1.085504 -1.801904
v 0.866303 1.085504 -1.799545
v 0.829461 1.085504 -1.895656
v 0.829461 1.085504 -1.852469
v 0.872648 1.085504 -1.895656
v 0.872648 1.085504 -1.852469
v 0.776538 0.016355 -1.858813
v 0.794145 0.016355 -1.823598
v 0.835806 0.016355 -1.948579
v 0.800590 0.016355 -1.930971
v 0.925571 0.016355 -1.889311
v 0.907963 0.016355 -1.924526
v 0.866303 0.016355 -1.799545
v 0.901518 0.016355 -1.817153
v 0.778897 0.016355 -1.898115
v 0.875107 0.016355 -1.946220
v 0.923212 0.016355 -1.850010
v 0.827002 0.016355 -1.801904
v 0.829461 0.016355 -1.852469
v 0.829461 0.016355 -1.895656
v 0.872648 0.016355 -1.852469
v 0.872648 0.016355 -1.895656
v -0.922475 1.085504 -1.823598
v -0.916031 1.085504 -1.930971
v -0.815102 1.085504 -1.817153
v -0.808657 1.085504 -1.924526
v -0.937724 1.085504 -1.898115
v -0.940083 1.085504 -1.858813
v -0.841514 1.085504 -1.946220
v -0.880815 1.085504 -1.948579
v -0.793409 1.085504 -1.850010
v -0.791050 1.085504 -1.889311
v -0.889619 1.085504 -1.801904
v -0.850318 1.085504 -1.799545
v -0.887160 1.085504 -1.895656
v -0.887160 1.085504 -1.852469
v -0.843973 1.085504 -1.895656
v -0.843973 1.085504 -1.852469
v -0.940083 0.016355 -1.858813
v -0.922475 0.016355 -1.823598
v -0.880815 0.016355 -1.948579
v -0.916031 0.016355 -1.930971
v -0.791050 0.016355 -1.889311
v -0.808657 0.016355 -1.924526
v -0.850318 0.016355 -1.799545
v -0.815102 0.016355 -1.817153
v -0.937724 0.016355 -1.898115
v -0.841514 0.016355 -1.946220
v -0.793409 0.016355 -1.850010
v -0.889619 0.016355 -1.801904
v -0.887160 0.016355 -1.852469
v -0.887160 0.016355 -1.895656
v -0.843973 0.016355 -1.852469
v -0.843973 0.016355 -1.895656
v -1.000000 1.152419 2.000000
v -1.000000 1.152419 -2.000000
v 1.000000 1.152419 -2.000000
v 1.000000 1.152419 2.000000
v 0.938440 1.396985 -0.002786
v -0.938440 1.396985 -0.002786
v -0.938440 1.200933 -0.002786
v 0.938440 1.200933 -0.002786
v -0.938440 1.200217 0.002786
v 0.938440 1.200217 0.002786
v 0.938440 1.396421 0.002786
v -0.938440 1.396421 0.002786
v -0.922083 1.383604 0.002786
v 0.922083 1.208279 0.002786
v -0.922083 1.208279 0.002786
v 0.922083 1.388549 -0.002786
v 0.922083 1.214466 -0.002786
v -0.922083 1.214466 -0.002786
v -0.922083 1.388549 -0.002786
v 0.922083 1.383604 0.002786
v -0.922083 1.355904 0.002786
v -0.922083 1.326015 0.002786
v -0.922083 1.293279 0.002786
v -0.922083 1.267080 0.002786
v -0.922083 1.248844 0.002786
v -0.922083 1.229678 0.002786
v 0.922083 1.229678 0.002786
v 0.922083 1.248844 0.002786
v 0.922083 1.267080 0.002786
v 0.922083 1.293279 0.002786
v 0.922083 1.326014 0.002786
v 0.922083 1.355904 0.002786
v -0.938440 1.364992 0.002786
v -0.938440 1.331644 0.002786
v -0.938440 1.295430 0.002786
v -0.938440 1.266219 0.002786
v -0.938440 1.245885 0.002786
v -0.938440 1.224250 0.002786
v 0.938440 1.224250 0.002786
v 0.938440 1.245885 0.002786
v 0.938440 1.266219 0.002786
v 0.938440 1.295430 0.002786
v 0.938440 1.331644 0.002786
v 0.938440 1.364992 0.002786
v 0.922083 1.367748 -0.002786
v 0.922083 1.345163 -0.002786
v 0.922083 1.322011 -0.002786
v 0.922083 1.297343 -0.002786
v 0.922083 1.271335 -0.002786
v 0.922083 1.244231 -0.002786
v -0.922083 1.244231 -0.002786
v -0.922083 1.271335 -0.002786
v -0.922083 1.297343 -0.002786
v -0.922083 1.322011 -0.002786
v -0.922083 1.345163 -0.002786
v -0.922083 1.367748 -0.002786
v 0.938440 1.374339 -0.002786
v 0.938440 1.348927 -0.002786
v 0.938440 1.323073 -0.002786
v 0.938440 1.295497 -0.002786
v 0.938440 1.266246 -0.002786
v 0.938440 1.235656 -0.002786
v -0.938440 1.235656 -0.002786
v -0.938440 1.266246 -0.002786
v -0.938440 1.295497 -0.002786
v -0.938440 1.323073 -0.002786
v -0.938440 1.348926 -0.002786
v -0.938440 1.374339 -0.002786
v 0.469220 1.159722 0.002786
v -0.000000 1.151506 0.002786
v -0.469220 1.159722 0.002786
v 0.469220 1.160354 -0.002786
v -0.000000 1.152125 -0.002786
v -0.469220 1.160354 -0.002786
v 0.469220 1.351962 -0.002786
v -0.000000 1.342777 -0.002786
v -0.469220 1.351962 -0.002786
v -0.469220 1.351576 0.002786
v 0.000000 1.342404 0.002786
v 0.469220 1.351576 0.002786
v 0.461042 1.167523 0.002786
v -0.000000 1.159917 0.002786
v -0.461042 1.167523 0.002786
v 0.461042 1.172189 -0.002786
v -0.000000 1.164143 -0.002786
v -0.461042 1.172189 -0.002786
v 0.461042 1.346399 -0.002786
v -0.000000 1.337330 -0.002786
v -0.461042 1.346399 -0.002786
v -0.461042 1.343359 0.002786
v 0.000000 1.334702 0.002786
v 0.461042 1.343359 0.002786
v 0.461042 1.186752 0.002786
v -0.000000 1.179305 0.002786
v -0.461042 1.186752 0.002786
v 0.461042 1.204765 0.002786
v -0.000000 1.197380 0.002786
v -0.461042 1.204765 0.002786
v 0.461042 1.222305 0.002786
v -0.000000 1.214901 0.002786
v -0.461042 1.222305 0.002786
v 0.461042 1.247217 0.002786
v -0.000000 1.240163 0.002786
v -0.461042 1.247217 0.002786
v 0.461042 1.282373 0.002786
v -0.000000 1.275203 0.002786
v -0.461042 1.282373 0.002786
v 0.461042 1.323460 0.002786
v -0.000000 1.314952 0.002786
v -0.461042 1.323460 0.002786
v 0.461042 1.331704 -0.002786
v -0.000000 1.322652 -0.002786
v -0.461042 1.331704 -0.002786
v 0.461042 1.316035 -0.002786
v -0.000000 1.307022 -0.002786
v -0.461042 1.316035 -0.002786
v 0.461042 1.278217 -0.002786
v -0.000000 1.270072 -0.002786
v -0.461042 1.278217 -0.002786
v 0.461042 1.251920 -0.002786
v -0.000000 1.243847 -0.002786
v -0.461042 1.251920 -0.002786
v 0.461042 1.225756 -0.002786
v -0.000000 1.217736 -0.002786
v -0.461042 1.225756 -0.002786
v 0.461042 1.199733 -0.002786
v -0.000000 1.191729 -0.002786
v -0.461042 1.199733 -0.002786
vn -1.0000 -0.0000 -0.0000
vn -0.0000 -0.0000 -1.0000
vn 1.0000 -0.0000 -0.0000
vn -0.0000 -0.0000 1.0000
vn -0.0000 -1.0000 -0.0000
vn -0.0000 1.0000 -0.0000
vn 0.0452 0.7875 -0.6146
vn -0.0000 0.7682 -0.6402
vn 0.0439 0.7867 -0.6157
vn -0.0516 -0.9919 -0.1157
vn -0.0513 -0.9920 -0.1156
vn -0.0855 -0.9891 -0.1196
vn 0.3162 -0.0000 -0.9487
vn 0.7482 -0.0000 -0.6635
vn 0.6635 -0.0000 0.7482
vn 0.2005 -0.0000 0.9797
vn -0.3162 -0.0000 0.9487
vn -0.7482 -0.0000 0.6635
vn -0.9797 -0.0000 0.2005
vn -0.2005 -0.0000 -0.9797
vn -0.9487 -0.0000 -0.3162
vn -0.6635 -0.0000 -0.7482
vn 0.9487 -0.0000 0.3162
vn 0.9797 -0.0000 -0.2005
vn -0.0124 -0.2940 0.9557
vn -0.0086 -0.1288 0.9916
vn 0.0572 0.9954 0.0763
vn 0.0574 0.9954 0.0763
vn 0.0950 0.9919 0.0845
vn -0.0093 0.1742 -0.9847
vn -0.0087 0.0936 -0.9956
vn 0.0087 0.0936 -0.9956
vn 0.0086 -0.1288 0.9916
vn 0.0763 0.8045 -0.5890
vn -0.0469 0.8472 0.5292
vn -0.0803 0.8199 0.5669
vn -0.0482 0.8462 0.5306
vn -0.0349 -0.5226 0.8518
vn -0.0228 -0.5562 0.8308
vn -0.0000 0.8710 0.4913
vn 0.0469 0.8472 0.5292
vn 0.0482 0.8462 0.5306
vn 0.0803 0.8199 0.5669
vn -0.0000 -0.5874 0.8093
vn 0.0124 -0.2940 0.9557
vn 0.0228 -0.5562 0.8308
vn -0.0724 -0.7542 0.6526
vn -0.0415 -0.7382 0.6733
vn -0.0430 -0.7390 0.6723
vn 0.0093 0.1742 -0.9847
vn 0.0324 0.3504 -0.9360
vn 0.0196 0.3508 -0.9363
vn -0.0000 0.1765 -0.9843
vn -0.0000 0.3511 -0.9363
vn -0.0447 -0.7920 -0.6089
vn -0.0778 -0.7837 -0.6163
vn -0.0462 -0.7916 -0.6093
vn -0.0000 -0.7991 -0.6012
vn 0.0447 -0.7920 -0.6089
vn 0.0462 -0.7916 -0.6093
vn -0.0196 0.3508 -0.9363
vn -0.0324 0.3504 -0.9360
vn -0.0950 0.9919 0.0845
vn -0.0574 0.9954 0.0763
vn -0.0572 0.9954 0.0763
vn -0.0000 0.9977 0.0680
vn 0.0855 -0.9891 -0.1196
vn 0.0513 -0.9920 -0.1156
vn 0.0516 -0.9919 -0.1157
vn -0.0000 -0.9938 -0.1116
vn 0.0415 -0.7382 0.6733
vn 0.0725 -0.7542 0.6526
vn 0.0430 -0.7390 0.6723
vn -0.0000 -0.7220 0.6919
vn 0.0778 -0.7836 -0.6163
vn -0.0452 0.7875 -0.6146
vn -0.0439 0.7868 -0.6157
vn -0.0763 0.8045 -0.5890
vn 0.0349 -0.5226 0.8518
vt 0.582292 0.000000
vt 0.625000 0.000000
vt 0.625000 0.250000
vt 0.582292 0.250000
vt 0.625000 0.500000
vt 0.582292 0.500000
vt 0.625000 0.750000
vt 0.582292 0.750000
vt 0.625000 1.000000
vt 0.582292 1.000000
vt 0.125000 0.500000
vt 0.375000 0.500000
vt 0.375000 0.750000
vt 0.125000 0.750000
vt 0.875000 0.500000
vt 0.875000 0.750000
vt 0.000000 0.000000
vt 0.628480 0.500000
vt 0.628480 0.750000
vt 0.871520 0.500000
vt 0.871520 0.750000
vt 0.291667 0.666667
vt 0.291667 0.750000
vt 0.375000 0.666667
vt 0.125000 0.666667
vt 0.208333 0.750000
vt 0.208333 0.666667
vt 0.125000 0.583333
vt 0.208333 0.583333
vt 0.208333 0.500000
vt 0.291667 0.583333
vt 0.291667 0.500000
vt 0.375000 0.583333
vt 0.375000 1.000000
vt 0.375000 0.250000
vt 0.375000 0.000000
s 1
usemtl Table_wood
f 3/11/5 7/12/5 5/13/5 1/14/5
f 15/5/6 26/18/6 27/19/6 16/7/6
f 22/20/5 23/21/5 9/16/5 10/15/5
f 25/20/6 14/15/6 13/16/6 28/21/6
f 27/19/1 26/18/1 32/18/1 18/19/1
f 21/18/1 24/19/1 19/19/1 29/18/1
f 12/5/5 11/7/5 24/19/5 21/18/5
f 23/21/3 22/20/3 30/20/3 20/21/3
f 25/20/3 28/21/3 17/21/3 31/20/3
f 48/22/6 44/23/6 35/13/6 41/24/6
f 38/25/6 33/14/6 43/26/6 46/27/6
f 46/27/6 43/26/6 44/23/6 48/22/6
f 34/11/6 37/28/6 45/29/6 40/30/6
f 37/28/6 38/25/6 46/27/6 45/29/6
f 40/30/6 45/29/6 47/31/6 39/32/6
f 45/29/6 46/27/6 48/22/6 47/31/6
f 39/32/6 47/31/6 42/33/6 36/12/6
f 47/31/6 48/22/6 41/24/6 42/33/6
f 63/22/5 59/24/5 56/13/5 55/23/5
f 49/25/5 61/27/5 60/26/5 50/14/5
f 61/27/5 63/22/5 55/23/5 60/26/5
f 52/11/5 51/30/5 62/29/5 57/28/5
f 57/28/5 62/29/5 61/27/5 49/25/5
f 51/30/5 58/32/5 64/31/5 62/29/5
f 62/29/5 64/31/5 63/22/5 61/27/5
f 58/32/5 54/12/5 53/33/5 64/31/5
f 64/31/5 53/33/5 59/24/5 63/22/5
f 39/32/13 36/12/14 54/12/14 58/32/13
f 35/13/15 44/23/16 55/23/16 56/13/15
f 43/26/17 33/14/18 50/14/18 60/26/17
f 33/14/18 38/25/19 49/25/19 50/14/18
f 40/30/20 39/32/13 58/32/13 51/30/20
f 37/28/21 34/11/22 52/11/22 57/28/21
f 44/23/16 43/26/17 60/26/17 55/23/16
f 34/11/22 40/30/20 51/30/20 52/11/22
f 41/24/23 35/13/15 56/13/15 59/24/23
f 38/25/19 37/28/21 57/28/21 49/25/19
f 36/12/14 42/33/24 53/33/24 54/12/14
f 42/33/24 41/24/23 59/24/23 53/33/24
f 80/22/6 76/23/6 67/13/6 73/24/6
f 70/25/6 65/14/6 75/26/6 78/27/6
f 78/27/6 75/26/6 76/23/6 80/22/6
f 66/11/6 69/28/6 77/29/6 72/30/6
f 69/28/6 70/25/6 78/27/6 77/29/6
f 72/30/6 77/29/6 79/31/6 71/32/6
f 77/29/6 78/27/6 80/22/6 79/31/6
f 71/32/6 79/31/6 74/33/6 68/12/6
f 79/31/6 80/22/6 73/24/6 74/33/6
f 95/22/5 91/24/5 88/13/5 87/23/5
f 81/25/5 93/27/5 92/26/5 82/14/5
f 93/27/5 95/22/5 87/23/5 92/26/5
f 84/11/5 83/30/5 94/29/5 89/28/5
f 89/28/5 94/29/5 93/27/5 81/25/5
f 83/30/5 90/32/5 96/31/5 94/29/5
f 94/29/5 96/31/5 95/22/5 93/27/5
f 90/32/5 86/12/5 85/33/5 96/31/5
f 96/31/5 85/33/5 91/24/5 95/22/5
f 71/32/13 68/12/14 86/12/14 90/32/13
f 67/13/15 76/23/16 87/23/16 88/13/15
f 75/26/17 65/14/18 82/14/18 92/26/17
f 65/14/18 70/25/19 81/25/19 82/14/18
f 72/30/20 71/32/13 90/32/13 83/30/20
f 69/28/21 66/11/22 84/11/22 89/28/21
f 76/23/16 75/26/17 92/26/17 87/23/16
f 66/11/22 72/30/20 83/30/20 84/11/22
f 73/24/23 67/13/15 88/13/15 91/24/23
f 70/25/19 69/28/21 89/28/21 81/25/19
f 68/12/14 74/33/24 85/33/24 86/12/14
f 74/33/24 73/24/23 91/24/23 85/33/24
f 112/22/6 108/23/6 99/13/6 105/24/6
f 102/25/6 97/14/6 107/26/6 110/27/6
f 110/27/6 107/26/6 108/23/6 112/22/6
f 98/11/6 101/28/6 109/29/6 104/30/6
f 101/28/6 102/25/6 110/27/6 109/29/6
f 104/30/6 109/29/6 111/31/6 103/32/6
f 109/29/6 110/27/6 112/22/6 111/31/6
f 103/32/6 111/31/6 106/33/6 100/12/6
f 111/31/6 112/22/6 105/24/6 106/33/6
f 127/22/5 123/24/5 120/13/5 119/23/5
f 113/25/5 125/27/5 124/26/5 114/14/5
f 125/27/5 127/22/5 119/23/5 124/26/5
f 116/11/5 115/30/5 126/29/5 121/28/5
f 121/28/5 126/29/5 125/27/5 113/25/5
f 115/30/5 122/32/5 128/31/5 126/29/5
f 126/29/5 128/31/5 127/22/5 125/27/5
f 122/32/5 118/12/5 117/33/5 128/31/5
f 128/31/5 117/33/5 123/24/5 127/22/5
f 103/32/13 100/12/14 118/12/14 122/32/13
f 99/13/15 108/23/16 119/23/16 120/13/15
f 107/26/17 97/14/18 114/14/18 124/26/17
f 97/14/18 102/25/19 113/25/19 114/14/18
f 104/30/20 103/32/13 122/32/13 115/30/20
f 101/28/21 98/11/22 116/11/22 121/28/21
f 108/23/16 107/26/17 124/26/17 119/23/16
f 98/11/22 104/30/20 115/30/20 116/11/22
f 105/24/23 99/13/15 120/13/15 123/24/23
f 102/25/19 101/28/21 121/28/21 113/25/19
f 100/12/14 106/33/24 117/33/24 118/12/14
f 106/33/24 105/24/23 123/24/23 117/33/24
f 144/22/6 140/23/6 131/13/6 137/24/6
f 134/25/6 129/14/6 139/26/6 142/27/6
f 142/27/6 139/26/6 140/23/6 144/22/6
f 130/11/6 133/28/6 141/29/6 136/30/6
f 133/28/6 134/25/6 142/27/6 141/29/6
f 136/30/6 141/29/6 143/31/6 135/32/6
f 141/29/6 142/27/6 144/22/6 143/31/6
f 135/32/6 143/31/6 138/33/6 132/12/6
f 143/31/6 144/22/6 137/24/6 138/33/6
f 159/22/5 155/24/5 152/13/5 151/23/5
f 145/25/5 157/27/5 156/26/5 146/14/5
f 157/27/5 159/22/5 151/23/5 156/26/5
f 148/11/5 147/30/5 158/29/5 153/28/5
f 153/28/5 158/29/5 157/27/5 145/25/5
f 147/30/5 154/32/5 160/31/5 158/29/5
f 158/29/5 160/31/5 159/22/5 157/27/5
f 154/32/5 150/12/5 149/33/5 160/31/5
f 160/31/5 149/33/5 155/24/5 159/22/5
f 135/32/13 132/12/14 150/12/14 154/32/13
f 131/13/15 140/23/16 151/23/16 152/13/15
f 139/26/17 129/14/18 146/14/18 156/26/17
f 129/14/18 134/25/19 145/25/19 146/14/18
f 136/30/20 135/32/13 154/32/13 147/30/20
f 133/28/21 130/11/22 148/11/22 153/28/21
f 140/23/16 139/26/17 156/26/17 151/23/16
f 130/11/22 136/30/20 147/30/20 148/11/22
f 137/24/23 131/13/15 152/13/15 155/24/23
f 134/25/19 133/28/21 153/28/21 145/25/19
f 132/12/14 138/33/24 149/33/24 150/12/14
f 138/33/24 137/24/23 155/24/23 149/33/24
f 5/13/4 164/8/4 161/10/4 1/34/4
f 7/12/3 163/6/3 164/8/3 5/13/3
f 3/35/2 162/4/2 163/6/2 7/12/2
f 1/36/1 161/1/1 162/4/1 3/35/1
f 24/19/1 27/19/1 18/19/1 19/19/1
f 28/21/3 23/21/3 20/21/3 17/21/3
f 26/18/1 21/18/1 29/18/1 32/18/1
f 22/20/3 25/20/3 31/20/3 30/20/3
f 10/15/2 14/15/2 25/20/2 22/20/2
f 11/7/4 16/7/4 27/19/4 24/19/4
f 9/16/1 13/16/1 14/15/1 10/15/1
f 12/5/3 15/5/3 16/7/3 11/7/3
f 21/18/2 26/18/2 15/5/2 12/5/2
f 23/21/4 28/21/4 13/16/4 9/16/4
usemtl Green
f 161/1/1 2/2/1 4/3/1 162/4/1
f 162/4/2 4/3/2 8/5/2 163/6/2
f 163/6/3 8/5/3 6/7/3 164/8/3
f 164/8/4 6/7/4 2/9/4 161/10/4
f 8/5/6 4/15/6 2/16/6 6/7/6
usemtl net
f 267/17/7 266/17/8 278/17/8 279/17/9
f 234/17/10 231/17/11 169/17/12 167/17/12
f 270/17/25 250/17/4 173/17/4 181/17/26
f 238/17/27 237/17/28 166/17/29 172/17/29
f 243/17/4 175/17/4 169/17/4 231/17/4
f 181/17/26 173/17/4 172/17/4 193/17/4
f 205/17/2 176/17/2 165/17/2 217/17/2
f 244/17/30 177/17/31 168/17/2 232/17/2
f 249/17/2 179/17/2 166/17/2 237/17/2
f 211/17/2 178/17/32 167/17/2 223/17/2
f 187/17/4 174/17/4 170/17/4 199/17/4
f 252/17/4 180/17/4 171/17/4 240/17/4
f 180/17/4 192/17/33 204/17/4 171/17/4
f 192/17/33 191/17/4 203/17/4 204/17/4
f 191/17/4 190/17/4 202/17/4 203/17/4
f 190/17/4 189/17/4 201/17/4 202/17/4
f 189/17/4 188/17/4 200/17/4 201/17/4
f 188/17/4 187/17/4 199/17/4 200/17/4
f 175/17/4 186/17/4 198/17/4 169/17/4
f 186/17/4 185/17/4 197/17/4 198/17/4
f 185/17/4 184/17/4 196/17/4 197/17/4
f 184/17/4 183/17/4 195/17/4 196/17/4
f 183/17/4 182/17/4 194/17/4 195/17/4
f 182/17/4 181/17/26 193/17/4 194/17/4
f 243/17/4 255/17/4 186/17/4 175/17/4
f 182/17/34 267/17/7 279/17/9 214/17/34
f 258/17/4 261/17/4 184/17/4 185/17/4
f 259/17/35 189/17/36 209/17/36 283/17/37
f 264/17/4 267/17/4 182/17/4 183/17/4
f 181/17/3 182/17/3 214/17/3 215/17/3
f 179/17/2 216/17/2 228/17/2 166/17/2
f 216/17/2 215/17/2 227/17/2 228/17/2
f 215/17/2 214/17/2 226/17/2 227/17/2
f 214/17/2 213/17/2 225/17/2 226/17/2
f 213/17/2 212/17/2 224/17/2 225/17/2
f 212/17/2 211/17/2 223/17/2 224/17/2
f 177/17/31 210/17/2 222/17/2 168/17/2
f 210/17/2 209/17/2 221/17/2 222/17/2
f 209/17/2 208/17/2 220/17/2 221/17/2
f 208/17/2 207/17/2 219/17/2 220/17/2
f 207/17/2 206/17/2 218/17/2 219/17/2
f 206/17/2 205/17/2 217/17/2 218/17/2
f 249/17/2 273/17/2 216/17/2 179/17/2
f 273/17/2 276/17/2 215/17/2 216/17/2
f 270/17/25 181/17/26 215/17/38 276/17/39
f 279/17/2 282/17/2 213/17/2 214/17/2
f 260/17/40 259/17/35 283/17/37 284/17/40
f 285/17/2 288/17/2 211/17/2 212/17/2
f 209/17/2 210/17/2 286/17/2 283/17/2
f 283/17/2 286/17/2 287/17/2 284/17/2
f 284/17/2 287/17/2 288/17/2 285/17/2
f 261/17/41 260/17/40 284/17/40 285/17/42
f 184/17/43 261/17/41 285/17/42 212/17/43
f 183/17/3 184/17/3 212/17/3 213/17/3
f 207/17/2 208/17/2 280/17/2 277/17/2
f 277/17/2 280/17/2 281/17/2 278/17/2
f 278/17/2 281/17/2 282/17/2 279/17/2
f 269/17/44 270/17/25 276/17/39 275/17/44
f 268/17/45 269/17/44 275/17/44 274/17/46
f 211/17/47 288/17/48 258/17/49 185/17/47
f 205/17/2 206/17/2 274/17/2 271/17/2
f 271/17/2 274/17/2 275/17/2 272/17/2
f 272/17/2 275/17/2 276/17/2 273/17/2
f 176/17/2 205/17/2 271/17/2 247/17/2
f 247/17/2 271/17/2 272/17/2 248/17/2
f 248/17/2 272/17/2 273/17/2 249/17/2
f 178/17/3 211/17/3 185/17/3 186/17/3
f 246/17/50 178/17/32 186/17/51 255/17/52
f 245/17/53 246/17/50 255/17/52 254/17/54
f 190/17/4 191/17/4 265/17/4 262/17/4
f 262/17/4 265/17/4 266/17/4 263/17/4
f 263/17/4 266/17/4 267/17/4 264/17/4
f 264/17/55 183/17/56 213/17/56 282/17/57
f 263/17/58 264/17/55 282/17/57 281/17/58
f 262/17/59 263/17/58 281/17/58 280/17/60
f 188/17/4 189/17/4 259/17/4 256/17/4
f 256/17/4 259/17/4 260/17/4 257/17/4
f 257/17/4 260/17/4 261/17/4 258/17/4
f 244/17/30 245/17/53 254/17/54 253/17/61
f 177/17/31 244/17/30 253/17/61 187/17/62
f 210/17/1 177/17/1 187/17/1 188/17/1
f 174/17/4 187/17/4 253/17/4 241/17/4
f 241/17/4 253/17/4 254/17/4 242/17/4
f 242/17/4 254/17/4 255/17/4 243/17/4
f 173/17/4 250/17/4 238/17/4 172/17/4
f 250/17/4 251/17/4 239/17/4 238/17/4
f 251/17/4 252/17/4 240/17/4 239/17/4
f 176/17/2 247/17/2 235/17/2 165/17/2
f 247/17/2 248/17/2 236/17/2 235/17/2
f 248/17/2 249/17/2 237/17/2 236/17/2
f 178/17/32 246/17/50 234/17/2 167/17/2
f 246/17/50 245/17/53 233/17/2 234/17/2
f 245/17/53 244/17/30 232/17/2 233/17/2
f 174/17/4 241/17/4 229/17/4 170/17/4
f 241/17/4 242/17/4 230/17/4 229/17/4
f 242/17/4 243/17/4 231/17/4 230/17/4
f 171/17/63 165/17/63 235/17/64 240/17/65
f 240/17/65 235/17/64 236/17/66 239/17/66
f 239/17/66 236/17/66 237/17/28 238/17/27
f 192/17/33 180/17/4 252/17/4 268/17/45
f 268/17/45 252/17/4 251/17/4 269/17/4
f 269/17/4 251/17/4 250/17/4 270/17/25
f 168/17/67 170/17/67 229/17/68 232/17/69
f 232/17/69 229/17/68 230/17/70 233/17/70
f 233/17/70 230/17/70 231/17/11 234/17/10
f 286/17/71 210/17/72 188/17/72 256/17/73
f 287/17/74 286/17/71 256/17/73 257/17/74
f 288/17/48 287/17/74 257/17/74 258/17/49
f 189/17/1 190/17/1 208/17/1 209/17/1
f 190/17/75 262/17/59 280/17/60 208/17/75
f 266/17/8 265/17/76 277/17/77 278/17/8
f 265/17/76 191/17/78 207/17/78 277/17/77
f 191/17/1 192/17/1 206/17/1 207/17/1
f 192/17/33 268/17/45 274/17/46 206/17/79
